<svg width="26" height="26" viewBox="0 0 26 26" fill="none" xmlns="http://www.w3.org/2000/svg">
<path fill-rule="evenodd" clip-rule="evenodd" d="M19.6834 1.42398C18.446 0.709678 16.8637 1.13357 16.1493 2.37078L14.9637 4.42404C14.782 4.73871 14.4157 4.89454 14.0562 4.84107C13.7079 4.78926 13.4138 4.54757 13.3227 4.20752L12.7091 1.91786C12.3392 0.53794 10.9206 -0.280966 9.54052 0.0887817C8.16039 0.45853 7.34136 1.87692 7.71116 3.25684L8.23995 5.23C8.35055 5.64269 8.16975 6.07283 7.82014 6.31849C7.49648 6.54592 7.06829 6.58716 6.72569 6.38939L4.9582 5.36908C3.72081 4.65478 2.13856 5.07868 1.42416 6.31588C0.709749 7.55308 1.13371 9.13509 2.3711 9.84938L3.72714 10.6322C4.16637 10.8857 4.3697 11.4073 4.28364 11.907C4.2038 12.3706 3.88271 12.7628 3.42823 12.8846L1.91815 13.2892C0.53802 13.6589 -0.281009 15.0773 0.0887953 16.4572C0.4586 17.8371 1.8772 18.656 3.25733 18.2863L4.43616 17.9705C4.97033 17.8274 5.52484 18.0617 5.85386 18.5062C6.17276 18.9369 6.24715 19.5193 5.97914 19.9834L5.36976 21.0387C4.65535 22.2759 5.07932 23.8579 6.3167 24.5722C7.55409 25.2865 9.13634 24.8626 9.85074 23.6254L10.4601 22.5701C10.7281 22.1059 11.2698 21.8792 11.8023 21.9399C12.3518 22.0026 12.8321 22.3656 12.9753 22.8997L13.2911 24.0782C13.6609 25.4581 15.0795 26.277 16.4596 25.9073C17.8397 25.5375 18.6588 24.1192 18.289 22.7392L17.8843 21.2292C17.7625 20.7749 17.9417 20.3008 18.3033 19.9999C18.6931 19.6755 19.2464 19.5909 19.6856 19.8444L21.0419 20.6273C22.2792 21.3416 23.8615 20.9177 24.5759 19.6805C25.2903 18.4433 24.8663 16.8613 23.629 16.147L21.8612 15.1266C21.5187 14.9288 21.3403 14.5375 21.3755 14.1436C21.4134 13.7181 21.6956 13.3465 22.1083 13.236L24.0819 12.7072C25.462 12.3375 26.281 10.9191 25.9112 9.53917C25.5414 8.15925 24.1228 7.34035 22.7427 7.71009L20.4528 8.32356C20.1127 8.41469 19.7562 8.2808 19.5372 8.00511C19.3112 7.72059 19.263 7.32543 19.4447 7.01074L20.6303 4.95748C21.3447 3.72028 20.9208 2.13828 19.6834 1.42398ZM12.7865 18.5443C15.6463 18.5443 17.9646 16.2263 17.9646 13.367C17.9646 10.5076 15.6463 8.18964 12.7865 8.18964C9.92672 8.18964 7.6084 10.5076 7.6084 13.367C7.6084 16.2263 9.92672 18.5443 12.7865 18.5443Z" fill="black"/>
</svg>
