<svg width="60" height="46" viewBox="0 0 60 46" fill="none" xmlns="http://www.w3.org/2000/svg">
<g filter="url(#filter0_d_96_473)">
<line x1="9" y1="34.5" x2="51" y2="34.5" stroke="#4F4F4F" stroke-opacity="0.7" stroke-width="3" shape-rendering="crispEdges"/>
</g>
<path fill-rule="evenodd" clip-rule="evenodd" d="M36.6834 1.42007C35.446 0.705772 33.8637 1.12967 33.1493 2.36687L31.9637 4.42013C31.782 4.7348 31.4157 4.89064 31.0562 4.83717C30.7079 4.78536 30.4138 4.54366 30.3227 4.20361L29.7091 1.91395C29.3392 0.534034 27.9206 -0.284873 26.5405 0.0848755C25.1604 0.454624 24.3414 1.87301 24.7112 3.25293L25.24 5.22609C25.3505 5.63879 25.1698 6.06892 24.8201 6.31459C24.4965 6.54201 24.0683 6.58325 23.7257 6.38549L21.9582 5.36517C20.7208 4.65088 19.1386 5.07477 18.4242 6.31197C17.7097 7.54918 18.1337 9.13118 19.3711 9.84548L20.7271 10.6283C21.1664 10.8818 21.3697 11.4033 21.2836 11.9031C21.2038 12.3667 20.8827 12.7589 20.4282 12.8807L18.9181 13.2853C17.538 13.655 16.719 15.0734 17.0888 16.4533C17.4586 17.8332 18.8772 18.6521 20.2573 18.2824L21.4362 17.9666C21.9703 17.8235 22.5248 18.0578 22.8539 18.5023C23.1728 18.933 23.2471 19.5154 22.9791 19.9795L22.3698 21.0348C21.6554 22.272 22.0793 23.854 23.3167 24.5683C24.5541 25.2826 26.1363 24.8587 26.8507 23.6215L27.4601 22.5662C27.7281 22.102 28.2698 21.8753 28.8023 21.936C29.3518 21.9987 29.8321 22.3617 29.9753 22.8958L30.2911 24.0743C30.6609 25.4542 32.0795 26.2731 33.4596 25.9034C34.8397 25.5336 35.6588 24.1152 35.289 22.7353L34.8843 21.2253C34.7625 20.771 34.9417 20.2969 35.3033 19.996C35.6931 19.6716 36.2464 19.5869 36.6856 19.8405L38.0419 20.6234C39.2792 21.3377 40.8615 20.9138 41.5759 19.6766C42.2903 18.4394 41.8663 16.8574 40.629 16.1431L38.8612 15.1227C38.5187 14.9249 38.3403 14.5336 38.3755 14.1397C38.4134 13.7142 38.6956 13.3426 39.1083 13.2321L41.0819 12.7033C42.462 12.3336 43.281 10.9152 42.9112 9.53526C42.5414 8.15534 41.1228 7.33644 39.7427 7.70619L37.4528 8.31966C37.1127 8.41078 36.7562 8.2769 36.5372 8.00121C36.3112 7.71668 36.263 7.32152 36.4447 7.00683L37.6303 4.95357C38.3447 3.71637 37.9208 2.13437 36.6834 1.42007ZM29.7865 18.5404C32.6463 18.5404 34.9646 16.2224 34.9646 13.3631C34.9646 10.5037 32.6463 8.18573 29.7865 8.18573C26.9267 8.18573 24.6084 10.5037 24.6084 13.3631C24.6084 16.2224 26.9267 18.5404 29.7865 18.5404Z" fill="black"/>
<defs>
<filter id="filter0_d_96_473" x="0" y="26" width="60" height="21" filterUnits="userSpaceOnUse" color-interpolation-filters="sRGB">
<feFlood flood-opacity="0" result="BackgroundImageFix"/>
<feColorMatrix in="SourceAlpha" type="matrix" values="0 0 0 0 0 0 0 0 0 0 0 0 0 0 0 0 0 0 127 0" result="hardAlpha"/>
<feOffset dy="2"/>
<feGaussianBlur stdDeviation="4.5"/>
<feComposite in2="hardAlpha" operator="out"/>
<feColorMatrix type="matrix" values="0 0 0 0 0 0 0 0 0 0 0 0 0 0 0 0 0 0 0.25 0"/>
<feBlend mode="normal" in2="BackgroundImageFix" result="effect1_dropShadow_96_473"/>
<feBlend mode="normal" in="SourceGraphic" in2="effect1_dropShadow_96_473" result="shape"/>
</filter>
</defs>
</svg>
