<svg width="36" height="23" viewBox="0 0 36 23" fill="none" xmlns="http://www.w3.org/2000/svg">
<rect x="1.5" y="1.5" width="33" height="20" stroke="#575757" stroke-width="3"/>
<path d="M29.0483 17.8995C29.0483 17.6787 28.9763 17.5536 28.8323 17.5241C28.7027 17.4947 28.5299 17.48 28.3139 17.48H18.0323V17.0825C18.4643 17.0825 18.6803 16.9501 18.6803 16.6851V6.66079C18.6803 6.39583 18.4643 6.26335 18.0323 6.26335V5.86591H21.7475V6.26335C21.3443 6.26335 21.1427 6.39583 21.1427 6.66079V15.4486H28.3139C28.5299 15.4486 28.7027 15.3971 28.8323 15.2941C28.9763 15.191 29.0483 15.0512 29.0483 14.8745H29.4371V17.8995H29.0483Z" fill="#575757"/>
<path d="M6.62759 14.2563L6.97319 14.3888C7.01639 14.6243 7.12439 14.8304 7.29719 15.007C7.48439 15.1837 7.70759 15.3382 7.96679 15.4707C8.22599 15.5885 8.50679 15.6841 8.80919 15.7577C9.11159 15.8166 9.39959 15.8461 9.67319 15.8461C10.5372 15.8461 11.1636 15.7209 11.5524 15.4707C11.9556 15.2057 12.1572 14.72 12.1572 14.0134V6.92575C12.1572 6.71967 12.0708 6.55775 11.898 6.43999C11.7252 6.32223 11.5596 6.26335 11.4012 6.26335V5.86591H15.5052V6.26335C15.2604 6.26335 15.0516 6.32223 14.8788 6.43999C14.706 6.55775 14.6196 6.71967 14.6196 6.92575V14.2121C14.6196 14.7862 14.4972 15.2867 14.2524 15.7136C14.022 16.1405 13.6908 16.4937 13.2588 16.7734C12.8268 17.0531 12.3156 17.2518 11.7252 17.3696C11.1348 17.4873 10.4796 17.5462 9.75959 17.5462C9.31319 17.5462 8.90279 17.5168 8.52839 17.4579C8.15399 17.399 7.81559 17.3328 7.51319 17.2592C7.22519 17.1709 6.96599 17.0899 6.73559 17.0163C6.51959 16.9427 6.33959 16.9059 6.19559 16.9059C6.03719 16.9059 5.90759 16.9942 5.80679 17.1709L5.48279 16.9501L6.62759 14.2563Z" fill="#575757"/>
</svg>
